<svg id="Layer_1" data-name="Layer 1" xmlns="http://www.w3.org/2000/svg" viewBox="0 0 150 50"><path d="M9.3,18.79a3.81,3.81,0,0,1,2.71.82,3.13,3.13,0,0,1,1.05,2.45,3,3,0,0,1-1.24,2.58,3.06,3.06,0,0,1-1.17.47L14,29.72H11.39l-2.84-4.4H8.29v4.4H6.22V18.79Zm-1,5h.59c.4,0,2-.05,2-1.66s-1.62-1.64-2-1.64H8.29Z"/><path d="M22.88,20.62H19.05v2.44h3.67V24.9H19.05v3h3.83v1.84H17V18.79h5.9Z"/><path d="M29.13,18.79a4.14,4.14,0,0,1,2.6.68,2.91,2.91,0,0,1,1,2.27,2.32,2.32,0,0,1-1.2,2.14,2.54,2.54,0,0,1,1.39.69,2.84,2.84,0,0,1,.77,2.05,3,3,0,0,1-.91,2.21,3.85,3.85,0,0,1-2.7.89H26.49V18.79Zm-.56,4.54h.59a1.42,1.42,0,0,0,1.61-1.43c0-1-.75-1.38-1.59-1.38h-.61Zm0,4.65h.89a2.74,2.74,0,0,0,1.42-.3,1.42,1.42,0,0,0,.66-1.26,1.31,1.31,0,0,0-.78-1.24A3.23,3.23,0,0,0,29.34,25h-.77Z"/><path d="M43.1,20.62H39.27v2.44h3.67V24.9H39.27v3H43.1v1.84H37.19V18.79H43.1Z"/><path d="M48.78,23.41l3.91-4.62h2.62l-4.5,5,4.74,5.89H52.81L49,24.82l-.24.24v4.66H46.71V18.79h2.07Z"/><path d="M64.76,27.42H60.47l-.94,2.3H57.28l4.58-10.93h1.63l4.45,10.93H65.71Zm-.6-1.73-1.52-3.94-1.51,3.94Z"/><path d="M72.86,23h4.5V18.79h2.08V29.72H77.36V24.85h-4.5v4.87H70.79V18.79h2.07Z"/><path d="M86.86,25l-3.5-6.22h1.37l2.72,4.88,2.74-4.88h1.37L88,25v4.71H86.86Z"/><path d="M93.71,24.26a5.54,5.54,0,1,1,11.08,0,5.54,5.54,0,1,1-11.08,0Zm1.21,0a4.33,4.33,0,1,0,4.33-4.51A4.41,4.41,0,0,0,94.92,24.26Z"/><path d="M109.74,25.49a3.16,3.16,0,0,0,.84,2.65,2.77,2.77,0,0,0,3.52,0,3.16,3.16,0,0,0,.84-2.65v-6.7h1.18v7a4.28,4.28,0,0,1-.67,2.62,4,4,0,0,1-6.22,0,4.28,4.28,0,0,1-.67-2.62v-7h1.18Z"/><path d="M120.47,29.72V18.33l8.3,8.93V18.79H130V30.21l-8.3-8.93v8.44Z"/><path d="M139.79,24.23h4.43v.26a6.17,6.17,0,0,1-1,3.46,4.74,4.74,0,0,1-4,2,5.48,5.48,0,0,1-5.52-5.65,5.5,5.5,0,0,1,5.56-5.65,5.19,5.19,0,0,1,3.25,1.08A6.45,6.45,0,0,1,143.76,21l-.88.82a5.85,5.85,0,0,0-1-1.13,3.83,3.83,0,0,0-2.59-.92,4.32,4.32,0,0,0-4.36,4.53,4.33,4.33,0,0,0,4.33,4.49,3.7,3.7,0,0,0,3.26-1.84,3.65,3.65,0,0,0,.43-1.56h-3.16Z"/></svg>